<svg xmlns="http://www.w3.org/2000/svg" viewBox="0 0 240 161" width="240" height="161">
  <path d="M 24 0
           L 70 0
           Q 80 0, 80 10
           L 80 24
           Q 80 34, 90 34
           L 150 34
           Q 160 34, 160 24
           L 160 10
           Q 160 0, 170 0
           L 216 0
           Q 240 0, 240 24
           L 240 137
           Q 240 161, 216 161
           L 24 161
           Q 0 161, 0 137
           L 0 24
           Q 0 0, 24 0 Z
           M 108 64
           L 112.8 84.4
           L 133.2 89.2
           L 112.8 94
           L 108 114.4
           L 103.2 94
           L 82.8 89.2
           L 103.2 84.4 Z
           M 156 108
           L 159 117.6
           L 168.6 120.6
           L 159 123.6
           L 156 133.2
           L 153 123.6
           L 143.4 120.6
           L 153 117.6 Z"
        fill="white"
        fill-rule="evenodd"/>
</svg>
